<?xml version="1.0" encoding="iso-8859-1"?>
<!-- Generator: Adobe Illustrator 19.0.0, SVG Export Plug-In . SVG Version: 6.00 Build 0)  -->
<svg version="1.1" id="Capa_1" xmlns="http://www.w3.org/2000/svg" xmlns:xlink="http://www.w3.org/1999/xlink" x="0px" y="0px"
	 viewBox="0 0 511.842 511.842" style="enable-background:new 0 0 511.842 511.842;" xml:space="preserve">
<path style="fill:#FC6E51;" d="M402.298,168.136c-17.596-17.597-46.119-17.581-63.707,0.007
	c-18.947,18.947-38.035,41.409-55.029,63.871h-0.008v7.912h118.752v-8.06C419.901,214.277,419.901,185.732,402.298,168.136z"/>
<g style="opacity:0.3;">
	<path style="fill:#FFFFFF;" d="M307.554,232.014c16.994-22.461,36.082-44.923,55.029-63.871
		c5.701-5.701,12.605-9.364,19.861-11.372c-15.128-4.178-31.967-0.515-43.854,11.372c-18.947,18.947-38.035,41.409-55.029,63.871
		h-0.008h23.992H307.554z"/>
</g>
<g style="opacity:0.7;">
	<path style="fill:#A0D468;" d="M388.278,182.162c13.645,13.652,26.961,16.183,27.148,16.206
		c-0.391-10.981-4.741-21.845-13.129-30.232c-8.381-8.389-19.244-12.723-30.232-13.113
		C372.112,155.234,374.65,168.534,388.278,182.162z"/>
</g>
<path style="fill:#A0D468;" d="M283.913,175.445c0,8.56-29.366,15.496-35.989,15.496s-11.997-6.936-11.997-15.496
	s5.374-15.495,11.997-15.495S283.913,166.886,283.913,175.445z"/>
<g style="opacity:0.2;">
	<path d="M247.924,159.95c-1.055,0-2.063,0.234-3.034,0.563c10.617,1.796,31.025,7.794,31.025,14.933s-20.408,13.137-31.025,14.933
		c0.972,0.328,1.979,0.563,3.034,0.563c6.623,0,35.989-6.936,35.989-15.496C283.913,166.886,254.547,159.95,247.924,159.95z"/>
</g>
<g style="opacity:0.5;">
	<path style="fill:#FFFFFF;" d="M243.925,175.445c0-7.193,3.815-13.191,8.962-14.933c-2.108-0.359-3.866-0.563-4.963-0.563
		c-6.623,0-11.997,6.936-11.997,15.495c0,8.56,5.374,15.496,11.997,15.496c1.097,0,2.854-0.203,4.963-0.563
		C247.74,188.637,243.925,182.639,243.925,175.445z"/>
</g>
<path style="fill:#ED5565;" d="M205.859,191.23l-0.063-0.078c-6.904-25.492-40.675-64.597-91.503-13.761
	c-17.432,17.416-23.337,37.145-22.181,54.538v7.998h152.125v-7.998C242.222,209.779,221.479,195.447,205.859,191.23z"/>
<rect x="435.861" y="199.941" style="fill:#FFD2A6;" width="63.98" height="247.92"/>
<g style="opacity:0.1;">
	<rect x="435.861" y="199.941" width="63.98" height="247.92"/>
</g>
<g style="opacity:0.2;">
	<rect x="435.861" y="231.931" width="63.98" height="7.998"/>
</g>
<g style="opacity:0.2;">
	<rect x="435.861" y="431.861" width="63.98" height="7.998"/>
</g>
<rect x="12.001" y="199.941" style="fill:#FFD2A6;" width="63.979" height="247.92"/>
<g style="opacity:0.1;">
	<rect x="12.001" y="199.941" width="63.979" height="247.92"/>
</g>
<g>
	<rect x="3.999" y="239.921" style="fill:#FFD2A6;" width="503.84" height="95.97"/>
	<rect x="3.999" y="335.901" style="fill:#FFD2A6;" width="503.84" height="95.97"/>
</g>
<g style="opacity:0.2;">
	<rect x="12.001" y="231.931" width="63.979" height="7.998"/>
</g>
<g style="opacity:0.2;">
	<rect x="12.001" y="431.861" width="63.979" height="7.998"/>
</g>
<g style="opacity:0.5;">
	<rect x="3.999" y="239.921" style="fill:#FFFFFF;" width="503.84" height="7.997"/>
</g>
<g style="opacity:0.2;">
	<rect x="3.999" y="327.901" width="503.84" height="7.997"/>
</g>
<g style="opacity:0.5;">
	<rect x="3.999" y="335.901" style="fill:#FFFFFF;" width="503.84" height="7.998"/>
</g>
<g style="opacity:0.2;">
	<rect x="3.999" y="423.871" width="503.84" height="7.998"/>
</g>
<path style="fill:#656D78;" d="M51.984,287.911c0,4.42-3.581,7.997-7.998,7.997c-4.416,0-7.997-3.577-7.997-7.997
	c0-4.421,3.581-7.998,7.997-7.998C48.403,279.913,51.984,283.49,51.984,287.911z"/>
<g style="opacity:0.5;">
	<path style="fill:#FFFFFF;" d="M43.986,287.911c0-2.93,1.652-5.382,3.999-6.771c-1.194-0.711-2.511-1.227-3.999-1.227
		c-4.416,0-7.997,3.577-7.997,7.998c0,4.42,3.581,7.997,7.997,7.997c1.488,0,2.805-0.516,3.999-1.226
		C45.639,293.292,43.986,290.84,43.986,287.911z"/>
</g>
<path style="fill:#656D78;" d="M51.984,383.881c0,4.421-3.581,7.997-7.998,7.997c-4.416,0-7.997-3.576-7.997-7.997
	s3.581-7.997,7.997-7.997C48.403,375.884,51.984,379.46,51.984,383.881z"/>
<g style="opacity:0.5;">
	<path style="fill:#FFFFFF;" d="M43.986,383.881c0-2.929,1.652-5.381,3.999-6.771c-1.194-0.71-2.511-1.226-3.999-1.226
		c-4.416,0-7.997,3.576-7.997,7.997s3.581,7.997,7.997,7.997c1.488,0,2.805-0.515,3.999-1.226
		C45.639,389.263,43.986,386.81,43.986,383.881z"/>
</g>
<path style="fill:#656D78;" d="M475.853,287.911c0,4.42-3.576,7.997-7.997,7.997s-7.997-3.577-7.997-7.997
	c0-4.421,3.576-7.998,7.997-7.998S475.853,283.49,475.853,287.911z"/>
<g style="opacity:0.5;">
	<path style="fill:#FFFFFF;" d="M467.856,287.911c0-2.93,1.655-5.382,3.999-6.771c-1.195-0.711-2.516-1.227-3.999-1.227
		c-4.421,0-7.997,3.577-7.997,7.998c0,4.42,3.576,7.997,7.997,7.997c1.483,0,2.804-0.516,3.999-1.226
		C469.511,293.292,467.856,290.84,467.856,287.911z"/>
</g>
<path style="fill:#656D78;" d="M475.853,383.881c0,4.421-3.576,7.997-7.997,7.997s-7.997-3.576-7.997-7.997s3.576-7.997,7.997-7.997
	S475.853,379.46,475.853,383.881z"/>
<g style="opacity:0.5;">
	<path style="fill:#FFFFFF;" d="M467.856,383.881c0-2.929,1.655-5.381,3.999-6.771c-1.195-0.71-2.516-1.226-3.999-1.226
		c-4.421,0-7.997,3.576-7.997,7.997s3.576,7.997,7.997,7.997c1.483,0,2.804-0.515,3.999-1.226
		C469.511,389.263,467.856,386.81,467.856,383.881z"/>
</g>
<g style="opacity:0.5;">
	<rect x="12.001" y="199.941" style="fill:#FFFFFF;" width="7.997" height="31.99"/>
</g>
<g style="opacity:0.2;">
	<rect x="67.981" y="199.941" width="7.997" height="31.99"/>
</g>
<g style="opacity:0.5;">
	<rect x="12.001" y="439.861" style="fill:#FFFFFF;" width="7.997" height="7.997"/>
</g>
<g style="opacity:0.2;">
	<rect x="67.981" y="439.861" width="7.997" height="7.997"/>
</g>
<g style="opacity:0.5;">
	<rect x="435.861" y="439.861" style="fill:#FFFFFF;" width="7.997" height="7.997"/>
</g>
<g style="opacity:0.2;">
	<rect x="491.851" y="439.861" width="7.997" height="7.997"/>
</g>
<g style="opacity:0.5;">
	<rect x="435.861" y="199.941" style="fill:#FFFFFF;" width="7.997" height="31.99"/>
</g>
<g style="opacity:0.2;">
	<rect x="491.851" y="199.941" width="7.997" height="31.99"/>
</g>
<g>
	<path style="fill:#3A3847;" d="M283.562,236.013c-0.844,0-1.695-0.266-2.414-0.813c-1.757-1.327-2.108-3.842-0.773-5.6
		c18.104-23.922,37.263-46.149,55.397-64.277c19.119-19.135,50.227-19.15,69.361-0.016c9.271,9.263,14.37,21.587,14.37,34.692
		c0,13.113-5.1,25.43-14.37,34.692c-1.562,1.562-4.093,1.562-5.654,0c-1.563-1.562-1.563-4.092,0-5.655
		c7.755-7.755,12.027-18.064,12.027-29.038c0-10.965-4.272-21.283-12.027-29.038c-15.995-15.995-42.042-15.979-58.053,0.016
		c-17.885,17.877-36.785,39.815-54.679,63.449C285.967,235.466,284.772,236.013,283.562,236.013z"/>
	<path style="fill:#3A3847;" d="M390.935,151.649c-1.023,0-2.047-0.391-2.828-1.172c-1.562-1.562-1.562-4.092,0-5.654l36.63-36.629
		c1.562-1.563,4.093-1.563,5.654,0c1.562,1.562,1.562,4.092,0,5.654l-36.63,36.629C392.981,151.258,391.957,151.649,390.935,151.649
		z"/>
	<path style="fill:#3A3847;" d="M406.866,156.967c-1.022,0-2.046-0.391-2.827-1.171c-1.562-1.562-1.562-4.092,0-5.655l88.98-88.988
		c1.562-1.562,4.093-1.562,5.654,0c1.563,1.562,1.563,4.092,0,5.655l-88.979,88.988C408.913,156.576,407.89,156.967,406.866,156.967
		z"/>
	<path style="fill:#3A3847;" d="M417.488,167.589c-1.023,0-2.046-0.391-2.827-1.172c-1.563-1.562-1.563-4.092,0-5.654l50.016-50.023
		c1.563-1.563,4.093-1.563,5.654,0c1.563,1.562,1.563,4.092,0,5.654l-50.016,50.023
		C419.534,167.198,418.512,167.589,417.488,167.589z"/>
	<path style="fill:#3A3847;" d="M364.38,210.06c-0.703,0-1.414-0.187-2.063-0.57c-16.025-9.638-17.674-17.432-17.846-18.9
		c-0.25-2.195,1.328-4.17,3.522-4.428c2.101-0.195,4.062,1.234,4.397,3.335c0.109,0.383,1.788,5.771,14.05,13.137
		c1.89,1.14,2.507,3.592,1.367,5.49C367.059,209.373,365.732,210.06,364.38,210.06z"/>
	<path style="fill:#3A3847;" d="M422.799,183.514c-1.022,0-2.046-0.391-2.827-1.172c-1.562-1.562-1.562-4.092,0-5.654l20.635-20.634
		c1.562-1.562,4.092-1.562,5.654,0c1.562,1.562,1.562,4.092,0,5.655l-20.635,20.634
		C424.846,183.123,423.822,183.514,422.799,183.514z"/>
	<path style="fill:#3A3847;" d="M415.466,202.391c-0.234,0-0.477-0.023-0.727-0.063c-0.594-0.117-14.832-2.874-29.28-17.323
		c-14.448-14.448-17.206-28.694-17.322-29.288c-0.398-2.171,1.038-4.256,3.21-4.663c2.179-0.352,4.248,1.031,4.654,3.202
		c0.07,0.352,2.647,12.629,15.112,25.094c12.582,12.582,24.97,15.089,25.095,15.112c2.163,0.414,3.584,2.507,3.178,4.671
		C419.026,201.047,417.356,202.391,415.466,202.391z"/>
</g>
<g style="opacity:0.3;">
	<path style="fill:#FFFFFF;" d="M92.112,232.014h16.019c0.891-15.308,7.318-31.802,22.157-46.626
		c22.329-22.329,41.358-27.296,56.271-23.695c-16.069-12.777-40.917-15.659-72.267,15.698
		c-17.432,17.416-23.337,37.145-22.181,54.538L92.112,232.014L92.112,232.014z"/>
</g>
<g style="opacity:0.2;">
	<rect x="92.111" y="231.931" width="152.12" height="7.998"/>
</g>
<g style="opacity:0.2;">
	<rect x="283.551" y="231.861" width="118.75" height="8.06"/>
</g>
<g>
	<path style="fill:#3A3847;" d="M507.843,339.895H3.999c-2.21,0-3.999-1.788-3.999-3.999v-95.97c0-2.21,1.789-3.999,3.999-3.999
		h503.844c2.211,0,3.999,1.789,3.999,3.999v95.97C511.842,338.107,510.054,339.895,507.843,339.895z M7.998,331.898h495.847v-87.973
		H7.998V331.898z"/>
	<path style="fill:#3A3847;" d="M507.843,435.865H3.999c-2.21,0-3.999-1.789-3.999-3.999v-95.971c0-2.21,1.789-3.998,3.999-3.998
		h503.844c2.211,0,3.999,1.788,3.999,3.998v95.971C511.842,434.076,510.054,435.865,507.843,435.865z M7.998,427.867h495.847
		v-87.973H7.998V427.867z"/>
	<path style="fill:#3A3847;" d="M11.997,235.927c-2.211,0-3.999-1.788-3.999-3.999v-31.99c0-2.21,1.788-3.999,3.999-3.999
		c2.21,0,3.998,1.788,3.998,3.999v31.99C15.995,234.139,14.207,235.927,11.997,235.927z"/>
	<path style="fill:#3A3847;" d="M75.977,203.937h-63.98c-2.211,0-3.999-1.788-3.999-3.999s1.788-3.999,3.999-3.999h63.979
		c2.211,0,3.999,1.788,3.999,3.999S78.188,203.937,75.977,203.937z"/>
	<path style="fill:#3A3847;" d="M75.977,235.927c-2.21,0-3.998-1.788-3.998-3.999v-31.99c0-2.21,1.788-3.999,3.998-3.999
		c2.211,0,3.999,1.788,3.999,3.999v31.99C79.976,234.139,78.188,235.927,75.977,235.927z"/>
	<path style="fill:#3A3847;" d="M75.977,451.86c-2.21,0-3.998-1.789-3.998-3.999v-7.997c0-2.211,1.788-3.999,3.998-3.999
		c2.211,0,3.999,1.788,3.999,3.999v7.997C79.976,450.071,78.188,451.86,75.977,451.86z"/>
	<path style="fill:#3A3847;" d="M75.977,451.86h-63.98c-2.211,0-3.999-1.789-3.999-3.999s1.788-3.999,3.999-3.999h63.979
		c2.211,0,3.999,1.789,3.999,3.999S78.188,451.86,75.977,451.86z"/>
	<path style="fill:#3A3847;" d="M11.997,451.86c-2.211,0-3.999-1.789-3.999-3.999v-7.997c0-2.211,1.788-3.999,3.999-3.999
		c2.21,0,3.998,1.788,3.998,3.999v7.997C15.995,450.071,14.207,451.86,11.997,451.86z"/>
	<path style="fill:#3A3847;" d="M435.865,235.927c-2.21,0-3.999-1.788-3.999-3.999v-31.99c0-2.21,1.789-3.999,3.999-3.999
		s3.999,1.788,3.999,3.999v31.99C439.864,234.139,438.075,235.927,435.865,235.927z"/>
	<path style="fill:#3A3847;" d="M499.846,203.937h-63.98c-2.21,0-3.999-1.788-3.999-3.999s1.789-3.999,3.999-3.999h63.98
		c2.21,0,3.999,1.788,3.999,3.999S502.056,203.937,499.846,203.937z"/>
	<path style="fill:#3A3847;" d="M499.846,235.927c-2.21,0-3.999-1.788-3.999-3.999v-31.99c0-2.21,1.789-3.999,3.999-3.999
		s3.999,1.788,3.999,3.999v31.99C503.845,234.139,502.056,235.927,499.846,235.927z"/>
	<path style="fill:#3A3847;" d="M499.846,451.86c-2.21,0-3.999-1.789-3.999-3.999v-7.997c0-2.211,1.789-3.999,3.999-3.999
		s3.999,1.788,3.999,3.999v7.997C503.845,450.071,502.056,451.86,499.846,451.86z"/>
	<path style="fill:#3A3847;" d="M499.846,451.86h-63.98c-2.21,0-3.999-1.789-3.999-3.999s1.789-3.999,3.999-3.999h63.98
		c2.21,0,3.999,1.789,3.999,3.999S502.056,451.86,499.846,451.86z"/>
	<path style="fill:#3A3847;" d="M435.865,451.86c-2.21,0-3.999-1.789-3.999-3.999v-7.997c0-2.211,1.789-3.999,3.999-3.999
		s3.999,1.788,3.999,3.999v7.997C439.864,450.071,438.075,451.86,435.865,451.86z"/>
	<path style="fill:#3A3847;" d="M43.986,299.907c-6.615,0-11.996-5.381-11.996-11.996s5.381-11.996,11.996-11.996
		s11.997,5.381,11.997,11.996S50.602,299.907,43.986,299.907z M43.986,283.912c-2.206,0-3.998,1.796-3.998,3.999
		c0,2.202,1.792,3.998,3.998,3.998c2.207,0,3.999-1.796,3.999-3.998C47.985,285.708,46.193,283.912,43.986,283.912z"/>
	<path style="fill:#3A3847;" d="M467.856,299.907c-6.615,0-11.996-5.381-11.996-11.996s5.381-11.996,11.996-11.996
		s11.996,5.381,11.996,11.996S474.471,299.907,467.856,299.907z M467.856,283.912c-2.202,0-3.999,1.796-3.999,3.999
		c0,2.202,1.797,3.998,3.999,3.998s3.999-1.796,3.999-3.998C471.855,285.708,470.058,283.912,467.856,283.912z"/>
	<path style="fill:#3A3847;" d="M43.986,395.877c-6.615,0-11.996-5.381-11.996-11.996s5.381-11.996,11.996-11.996
		s11.997,5.381,11.997,11.996S50.602,395.877,43.986,395.877z M43.986,379.882c-2.206,0-3.998,1.797-3.998,3.999
		s1.792,3.999,3.998,3.999c2.207,0,3.999-1.797,3.999-3.999S46.193,379.882,43.986,379.882z"/>
	<path style="fill:#3A3847;" d="M467.856,395.877c-6.615,0-11.996-5.381-11.996-11.996s5.381-11.996,11.996-11.996
		s11.996,5.381,11.996,11.996S474.471,395.877,467.856,395.877z M467.856,379.882c-2.202,0-3.999,1.797-3.999,3.999
		s1.797,3.999,3.999,3.999s3.999-1.797,3.999-3.999S470.058,379.882,467.856,379.882z"/>
	<path style="fill:#3A3847;" d="M92.109,235.927c-2.089,0-3.847-1.617-3.987-3.733c-1.378-20.743,6.912-41.213,23.345-57.63
		c26.605-26.609,47.856-28.03,60.997-24.524c19.61,5.226,32.81,23.892,37.191,40.066c0.578,2.132-0.68,4.326-2.812,4.904
		c-2.129,0.57-4.331-0.68-4.905-2.812c-3.659-13.512-15.089-30.045-31.533-34.427c-15.933-4.257-34.356,3.515-53.284,22.446
		c-14.776,14.761-22.243,33.036-21.017,51.445c0.145,2.203-1.523,4.108-3.726,4.256C92.288,235.927,92.198,235.927,92.109,235.927z"
		/>
	<path style="fill:#3A3847;" d="M244.234,235.927c-2.047,0-3.788-1.562-3.979-3.64c-1.89-20.782-22.228-33.63-35.438-37.199
		c-2.132-0.57-3.394-2.765-2.819-4.896c0.578-2.141,2.796-3.397,4.905-2.82c18.416,4.967,39.202,20.923,41.319,44.197
		c0.199,2.195-1.422,4.139-3.62,4.342C244.476,235.919,244.355,235.927,244.234,235.927z"/>
	<path style="fill:#3A3847;" d="M216.043,184.778c-1.094,0-2.188-0.445-2.976-1.327c-1.477-1.641-1.34-4.171,0.305-5.647
		c21.122-18.971,14.097-38.683,13.788-39.511c-0.769-2.062,0.266-4.374,2.324-5.146c2.062-0.789,4.354,0.242,5.146,2.288
		c0.395,1.031,9.442,25.547-15.917,48.321C217.952,184.443,216.995,184.778,216.043,184.778z"/>
	<path style="fill:#3A3847;" d="M247.924,194.94c-8.822,0-15.995-8.747-15.995-19.494c0-10.746,7.173-19.494,15.995-19.494
		c4.826,0,39.987,5.99,39.987,19.494C287.911,188.949,252.75,194.94,247.924,194.94z M247.924,163.949
		c-4.335,0-7.998,5.264-7.998,11.496s3.663,11.497,7.998,11.497c7.837,0,31.209-7.279,31.99-11.528
		C279.133,171.229,255.761,163.949,247.924,163.949z"/>
	<path style="fill:#3A3847;" d="M11.997,339.895c-1.043,0-2-0.398-2.801-1.124c-0.8-0.797-1.198-1.836-1.198-2.875
		c0-1.124,0.398-2.163,1.198-2.882c1.438-1.437,4.159-1.437,5.597,0.078c0.8,0.727,1.202,1.766,1.202,2.804
		c0,1.039-0.402,2.078-1.12,2.797C13.996,339.496,13.035,339.895,11.997,339.895z"/>
	<path style="fill:#3A3847;" d="M75.977,339.895c-1.042,0-1.999-0.398-2.8-1.124c-0.801-0.797-1.198-1.836-1.198-2.875
		c0-1.038,0.397-2.077,1.198-2.804c1.438-1.515,4.159-1.515,5.596,0c0.723,0.641,1.203,1.68,1.203,2.804
		c0,1.039-0.402,2.078-1.203,2.797C77.977,339.496,77.016,339.895,75.977,339.895z"/>
	<path style="fill:#3A3847;" d="M435.865,339.895c-0.96,0-1.999-0.398-2.804-1.124c-0.797-0.875-1.195-1.836-1.195-2.875
		c0-1.038,0.398-2.077,1.195-2.804c1.602-1.593,4.163-1.515,5.6,0c0.805,0.727,1.203,1.766,1.203,2.804c0,1.039-0.398,2-1.125,2.797
		C437.864,339.496,436.904,339.895,435.865,339.895z"/>
	<path style="fill:#3A3847;" d="M499.846,339.895c-1.039,0-1.999-0.398-2.804-1.124c-0.797-0.875-1.195-1.836-1.195-2.875
		c0-1.038,0.398-2.077,1.195-2.804c1.444-1.515,4.162-1.515,5.6,0c0.805,0.727,1.203,1.766,1.203,2.804c0,1.039-0.398,2-1.125,2.797
		C501.845,339.496,500.884,339.895,499.846,339.895z"/>
</g>
<g>
</g>
<g>
</g>
<g>
</g>
<g>
</g>
<g>
</g>
<g>
</g>
<g>
</g>
<g>
</g>
<g>
</g>
<g>
</g>
<g>
</g>
<g>
</g>
<g>
</g>
<g>
</g>
<g>
</g>
</svg>
