<svg height="512pt" viewBox="0 -18 512.00039 512" width="512pt" xmlns="http://www.w3.org/2000/svg"><path d="m256 7.5 50.257812 225.148438-50.257812 236.828124h-82.699219l-72.179687-236.828124 30.710937-225.148438zm0 0" fill="#c66d33"/><path d="m173.300781 469.476562h-54.433593c-17.539063 0-32.574219-12.515624-35.765626-29.757812l-75.265624-407.492188c-2.367188-12.859374 7.5-24.726562 20.574218-24.726562h103.421875zm0 0" fill="#e3996d"/><path d="m113.101562 439.71875-75.261718-407.492188c-2.371094-12.859374 7.496094-24.726562 20.574218-24.726562h-30c-13.078124 0-22.945312 11.867188-20.578124 24.726562l75.265624 407.492188c3.191407 17.242188 18.226563 29.753906 35.765626 29.753906h30.003906c-17.542969 0-32.578125-12.511718-35.769532-29.753906zm0 0" fill="#c66d33"/><path d="m504.164062 32.226562-75.265624 407.492188c-3.191407 17.242188-18.226563 29.753906-35.765626 29.753906h-54.433593l-32.441407-236.824218 73.910157-225.148438h103.421875c13.074218 0 22.941406 11.867188 20.574218 24.726562zm0 0" fill="#c66d33"/><path d="m380.167969 7.5-41.46875 461.976562h-82.699219v-461.976562zm0 0" fill="#e3996d"/><path d="m488.621094 83.214844h-465.242188c-8.609375 0-15.109375 7.8125-13.546875 16.28125l12.867188 69.65625c1.207031 6.53125 6.902343 11.273437 13.546875 11.273437h439.507812c6.640625 0 12.339844-4.742187 13.546875-11.273437l12.863281-69.65625c1.566407-8.46875-4.933593-16.28125-13.542968-16.28125zm0 0" fill="#a4afba"/><path d="m52.703125 169.152344-12.867187-69.65625c-1.5625-8.46875 4.9375-16.28125 13.546874-16.28125h-30c-8.613281 0-15.109374 7.8125-13.546874 16.28125l12.863281 69.65625c1.207031 6.53125 6.90625 11.273437 13.546875 11.273437h30.003906c-6.644531 0-12.339844-4.742187-13.546875-11.273437zm0 0" fill="#8596a4"/><path d="m451.242188 285.578125h-390.484376c-8.609374 0-15.109374 7.8125-13.546874 16.28125l12.867187 69.65625c1.207031 6.53125 6.902344 11.273437 13.546875 11.273437h364.75c6.644531 0 12.339844-4.742187 13.546875-11.273437l12.867187-69.65625c1.5625-8.46875-4.9375-16.28125-13.546874-16.28125zm0 0" fill="#a4afba"/><path d="m90.082031 371.515625-12.867187-69.65625c-1.5625-8.46875 4.9375-16.28125 13.546875-16.28125h-30c-8.613281 0-15.113281 7.8125-13.546875 16.28125l12.863281 69.65625c1.207031 6.53125 6.902344 11.273437 13.546875 11.273437h30.003906c-6.644531 0-12.34375-4.742187-13.546875-11.273437zm0 0" fill="#8596a4"/><path d="m151.988281 110.085938c-4.144531 0-7.503906 3.359374-7.503906 7.5v18.824218c0 4.144532 3.359375 7.503906 7.503906 7.503906 4.140625 0 7.5-3.359374 7.5-7.503906v-18.824218c0-4.140626-3.359375-7.5-7.5-7.5zm0 0"/><path d="m360.011719 110.085938c-4.144531 0-7.5 3.359374-7.5 7.5v18.824218c0 4.144532 3.355469 7.503906 7.5 7.503906 4.140625 0 7.5-3.359374 7.5-7.503906v-18.824218c0-4.140626-3.359375-7.5-7.5-7.5zm0 0"/><path d="m286.605469 129.453125c-3.117188-2.726563-7.855469-2.40625-10.582031.710937-4.886719 5.589844-12.183594 8.792969-20.023438 8.792969s-15.140625-3.203125-20.027344-8.792969c-2.726562-3.117187-7.464844-3.4375-10.582031-.710937-3.121094 2.726563-3.4375 7.464844-.710937 10.585937 7.734374 8.847657 19.148437 13.921876 31.320312 13.921876 12.167969 0 23.582031-5.074219 31.316406-13.921876 2.726563-3.121093 2.410156-7.859374-.710937-10.585937zm0 0"/><path d="m393.132812 476.976562c21.148438 0 39.292969-15.09375 43.140626-35.894531l9.636718-52.179687c6.789063-2.574219 12-8.535156 13.382813-16.023438 0 0 12.863281-69.625 12.867187-69.660156 1.339844-7.238281-1.289062-14.855469-6.777344-19.75l17.902344-96.929688c6.792969-2.574218 12.003906-8.53125 13.390625-16.023437l12.863281-69.65625c1.152344-6.234375-.511718-12.605469-4.566406-17.476563-.683594-.820312-1.425781-1.578124-2.210937-2.277343 0 0 8.773437-47.503907 8.777343-47.515625 3.179688-17.21875-10.472656-33.589844-27.953124-33.589844 0 0-454.960938 0-455.175782 0-17.5 0-31.121094 16.390625-27.949218 33.59375l8.773437 47.511719c-5.511719 4.917969-8.117187 12.484375-6.777344 19.753906l12.867188 69.65625c1.382812 7.492187 6.59375 13.449219 13.386719 16.023437l17.902343 96.929688c-.785156.703125-1.527343 1.457031-2.210937 2.28125-4.050782 4.871094-5.71875 11.238281-4.566406 17.472656l12.867187 69.65625c1.382813 7.492188 6.59375 13.449219 13.382813 16.027344l9.640624 52.179688c3.84375 20.796874 21.988282 35.890624 43.140626 35.890624zm100.707032-457.097656c2.460937 2.949219 3.695312 6.921875 2.945312 10.988282l-8.285156 44.847656h-106.925781l5.449219-60.714844h96.5625c4.128906 0 7.800781 1.933594 10.253906 4.878906zm-127.328125 55.835938h-103.011719v-60.714844h108.464844zm-118.011719 0h-103.015625l-5.449219-60.714844h108.464844zm107.941406 112.210937-8.09375 90.152344h-84.847656v-90.152344zm-107.941406 90.15625h-84.851562l-8.089844-90.15625h92.941406zm-108.003906-90.15625 8.089844 90.152344h-87.714844l-16.648438-90.152344zm-50.019532 250.433594-8.878906-48.070313h77.0625l6.433594 71.6875h-46.230469c-13.917969-.003906-25.855469-9.933593-28.386719-23.617187zm158.023438 23.613281h-68.34375l-6.433594-71.683594h74.777344zm15-71.683594h74.777344l-6.433594 71.6875h-68.34375zm158.023438 48.066407c-2.535157 13.6875-14.472657 23.617187-28.390626 23.617187h-46.230468l6.433594-71.683594h77.0625zm29.601562-160.273438h-22.417969c-4.140625 0-7.5 3.355469-7.5 7.5 0 4.140625 3.359375 7.5 7.5 7.5h22.53125c3.871094 0 6.871094 3.628907 6.171875 7.414063l-12.867187 69.65625c-.550781 2.976562-3.144531 5.136718-6.167969 5.136718h-364.75c-3.027344 0-5.621094-2.160156-6.171875-5.136718l-12.867187-69.65625c-.695313-3.757813 2.34375-7.414063 6.171874-7.414063h337.949219c4.140625 0 7.5-3.359375 7.5-7.5 0-4.144531-3.359375-7.5-7.5-7.5h-35.296875l8.09375-90.15625h96.273438zm43.664062-179.949219-12.867187 69.65625c-.546875 2.976563-3.144531 5.136719-6.171875 5.136719h-439.503906c-3.027344 0-5.621094-2.160156-6.171875-5.136719l-12.867188-69.65625c-.695312-3.78125 2.320313-7.414062 6.171875-7.414062h33.308594c4.140625 0 7.5-3.359375 7.5-7.503906 0-4.140625-3.359375-7.5-7.5-7.5h-33.191406s-8.273438-44.796875-8.285156-44.84375c-1.5-8.136719 4.9375-15.871094 13.199218-15.871094h96.5625l5.449219 60.714844h-43.734375c-4.140625 0-7.5 3.359375-7.5 7.5 0 4.144531 3.359375 7.503906 7.5 7.503906h401.929688c3.878906 0 6.871093 3.621094 6.171874 7.414062zm0 0"/></svg>